<svg width="101" height="45" fill="none" xmlns="http://www.w3.org/2000/svg"><path d="M11.006.475a28.853 28.853 0 00-.225 2.588 62.227 62.227 0 00-.056 2.7c0 1.668.084 3.374.253 5.118a54.57 54.57 0 00.76 5.175 51.617 51.617 0 001.265 5.09 43.917 43.917 0 001.744 4.726 32.864 32.864 0 002.25 4.19 20.383 20.383 0 002.784 3.432 13.916 13.916 0 002.672-3.938 24.09 24.09 0 001.603-4.669c.394-1.63.656-3.271.788-4.921a70.7 70.7 0 00.225-4.697h6.187c0 1.481.066 3.037.197 4.668a33.22 33.22 0 00.76 4.866c.374 1.594.9 3.14 1.575 4.64a15.102 15.102 0 002.643 3.994 27.469 27.469 0 004.078-5.793 41.328 41.328 0 002.841-6.835 45.922 45.922 0 001.66-7.312 51.9 51.9 0 00.534-7.34c0-2.007-.113-3.938-.338-5.795A63.93 63.93 0 0149.622.7c1.312.15 2.447.3 3.403.45 1.087.188 2.063.375 2.925.563V8.8a13.857 13.857 0 00-1.828-.478 45.843 45.843 0 01-1.716-.422c0 4.031-.393 7.772-1.181 11.222-.769 3.431-1.847 6.637-3.234 9.619a45.472 45.472 0 01-4.978 8.297 60.515 60.515 0 01-6.357 7.143 40.067 40.067 0 01-4.612-5.343c-1.406-1.97-2.7-4.2-3.881-6.694-1.22 2.494-2.55 4.734-3.994 6.722a39.189 39.189 0 01-4.613 5.371 58.183 58.183 0 01-6.272-7.143 44.999 44.999 0 01-4.865-8.297c-1.35-2.981-2.4-6.188-3.15-9.619-.75-3.45-1.125-7.19-1.125-11.222-.675.15-1.331.29-1.969.422-.619.113-1.237.272-1.856.478V1.713c0 .018.244-.02.731-.113a56.023 56.023 0 012.138-.338c.937-.15 2.062-.29 3.375-.421a78.908 78.908 0 014.443-.366zM79.631.137c2.888 0 5.606.254 8.156.76 2.55.506 4.782 1.21 6.694 2.11 1.913.9 3.422 1.987 4.528 3.262 1.107 1.256 1.66 2.643 1.66 4.162V32.82c0 1.518-.553 2.915-1.66 4.19-1.106 1.257-2.615 2.335-4.528 3.235-1.912.9-4.143 1.603-6.694 2.11-2.55.505-5.268.758-8.156.758a74.36 74.36 0 01-4.95-.168c-1.687-.132-3.328-.29-4.922-.478a79.41 79.41 0 01-4.443-.703c-1.388-.263-2.579-.544-3.572-.844V2.33c.993-.3 2.184-.581 3.572-.843a65.788 65.788 0 014.443-.676 79.624 79.624 0 014.922-.478 63.842 63.842 0 014.95-.197zm.113 6.357c-1.707 0-3.188.056-4.444.168-1.256.094-2.334.226-3.234.394-.9.15-1.65.319-2.25.506-.582.17-1.06.32-1.435.45v27.225c.375.15.853.31 1.435.479.6.168 1.35.337 2.25.506.9.15 1.978.281 3.234.394 1.256.093 2.737.14 4.444.14 2.1 0 3.984-.169 5.653-.506 1.687-.337 3.103-.788 4.247-1.35 1.162-.563 2.053-1.21 2.672-1.94.618-.75.928-1.529.928-2.335v-18c0-.806-.31-1.575-.928-2.306-.62-.75-1.51-1.407-2.672-1.969-1.144-.563-2.56-1.012-4.247-1.35-1.669-.338-3.553-.506-5.653-.506z" fill="#34547A"/></svg>